<?xml version="1.0" encoding="UTF-8"?>
<mxfile host="app.diagrams.net" modified="2023-12-20T11:10:52.519Z" agent="Mozilla/5.0 (Windows NT 10.0; Win64; x64) AppleWebKit/537.36 (KHTML, like Gecko) Chrome/120.0.0.0 Safari/537.36 Edg/120.0.0.0" etag="IUti_G9hKq_xWS4P5Pu0" version="22.1.11" type="google">
  <diagram name="第 1 页" id="c896PMPbMb62NEr009ZX">
    <mxGraphModel dx="1042" dy="569" grid="1" gridSize="10" guides="1" tooltips="1" connect="1" arrows="1" fold="1" page="1" pageScale="1" pageWidth="827" pageHeight="1169" math="0" shadow="0">
      <root>
        <mxCell id="0" />
        <mxCell id="1" parent="0" />
        <mxCell id="s1ZY2kmT0cGc5pneQ3yJ-1" value="SecurityGuard" style="swimlane;fontStyle=0;childLayout=stackLayout;horizontal=1;startSize=30;horizontalStack=0;resizeParent=1;resizeParentMax=0;resizeLast=0;collapsible=1;marginBottom=0;whiteSpace=wrap;html=1;" parent="1" vertex="1">
          <mxGeometry x="100" y="340" width="140" height="90" as="geometry" />
        </mxCell>
        <mxCell id="s1ZY2kmT0cGc5pneQ3yJ-2" value="logOn()" style="text;strokeColor=none;fillColor=none;align=left;verticalAlign=middle;spacingLeft=4;spacingRight=4;overflow=hidden;points=[[0,0.5],[1,0.5]];portConstraint=eastwest;rotatable=0;whiteSpace=wrap;html=1;" parent="s1ZY2kmT0cGc5pneQ3yJ-1" vertex="1">
          <mxGeometry y="30" width="140" height="30" as="geometry" />
        </mxCell>
        <mxCell id="s1ZY2kmT0cGc5pneQ3yJ-3" value="findSecunityPofile()" style="text;strokeColor=none;fillColor=none;align=left;verticalAlign=middle;spacingLeft=4;spacingRight=4;overflow=hidden;points=[[0,0.5],[1,0.5]];portConstraint=eastwest;rotatable=0;whiteSpace=wrap;html=1;" parent="s1ZY2kmT0cGc5pneQ3yJ-1" vertex="1">
          <mxGeometry y="60" width="140" height="30" as="geometry" />
        </mxCell>
        <mxCell id="s1ZY2kmT0cGc5pneQ3yJ-5" value="CarCatelog" style="swimlane;fontStyle=0;childLayout=stackLayout;horizontal=1;startSize=30;horizontalStack=0;resizeParent=1;resizeParentMax=0;resizeLast=0;collapsible=1;marginBottom=0;whiteSpace=wrap;html=1;" parent="1" vertex="1">
          <mxGeometry x="320" y="530" width="140" height="120" as="geometry" />
        </mxCell>
        <mxCell id="s1ZY2kmT0cGc5pneQ3yJ-6" value="findCar()" style="text;strokeColor=none;fillColor=none;align=left;verticalAlign=middle;spacingLeft=4;spacingRight=4;overflow=hidden;points=[[0,0.5],[1,0.5]];portConstraint=eastwest;rotatable=0;whiteSpace=wrap;html=1;" parent="s1ZY2kmT0cGc5pneQ3yJ-5" vertex="1">
          <mxGeometry y="30" width="140" height="30" as="geometry" />
        </mxCell>
        <mxCell id="s1ZY2kmT0cGc5pneQ3yJ-7" value="addCar()" style="text;strokeColor=none;fillColor=none;align=left;verticalAlign=middle;spacingLeft=4;spacingRight=4;overflow=hidden;points=[[0,0.5],[1,0.5]];portConstraint=eastwest;rotatable=0;whiteSpace=wrap;html=1;" parent="s1ZY2kmT0cGc5pneQ3yJ-5" vertex="1">
          <mxGeometry y="60" width="140" height="30" as="geometry" />
        </mxCell>
        <mxCell id="s1ZY2kmT0cGc5pneQ3yJ-8" value="deleteCar()" style="text;strokeColor=none;fillColor=none;align=left;verticalAlign=middle;spacingLeft=4;spacingRight=4;overflow=hidden;points=[[0,0.5],[1,0.5]];portConstraint=eastwest;rotatable=0;whiteSpace=wrap;html=1;" parent="s1ZY2kmT0cGc5pneQ3yJ-5" vertex="1">
          <mxGeometry y="90" width="140" height="30" as="geometry" />
        </mxCell>
        <mxCell id="s1ZY2kmT0cGc5pneQ3yJ-9" value="SystemAssistant" style="swimlane;fontStyle=0;childLayout=stackLayout;horizontal=1;startSize=30;horizontalStack=0;resizeParent=1;resizeParentMax=0;resizeLast=0;collapsible=1;marginBottom=0;whiteSpace=wrap;html=1;" parent="1" vertex="1">
          <mxGeometry x="100" y="500" width="140" height="150" as="geometry" />
        </mxCell>
        <mxCell id="s1ZY2kmT0cGc5pneQ3yJ-10" value="displayNextPage()" style="text;strokeColor=none;fillColor=none;align=left;verticalAlign=middle;spacingLeft=4;spacingRight=4;overflow=hidden;points=[[0,0.5],[1,0.5]];portConstraint=eastwest;rotatable=0;whiteSpace=wrap;html=1;" parent="s1ZY2kmT0cGc5pneQ3yJ-9" vertex="1">
          <mxGeometry y="30" width="140" height="30" as="geometry" />
        </mxCell>
        <mxCell id="s1ZY2kmT0cGc5pneQ3yJ-11" value="displayPreviousPage()" style="text;strokeColor=none;fillColor=none;align=left;verticalAlign=middle;spacingLeft=4;spacingRight=4;overflow=hidden;points=[[0,0.5],[1,0.5]];portConstraint=eastwest;rotatable=0;whiteSpace=wrap;html=1;" parent="s1ZY2kmT0cGc5pneQ3yJ-9" vertex="1">
          <mxGeometry y="60" width="140" height="30" as="geometry" />
        </mxCell>
        <mxCell id="s1ZY2kmT0cGc5pneQ3yJ-14" value="selectCar()" style="text;strokeColor=none;fillColor=none;align=left;verticalAlign=middle;spacingLeft=4;spacingRight=4;overflow=hidden;points=[[0,0.5],[1,0.5]];portConstraint=eastwest;rotatable=0;whiteSpace=wrap;html=1;" parent="s1ZY2kmT0cGc5pneQ3yJ-9" vertex="1">
          <mxGeometry y="90" width="140" height="30" as="geometry" />
        </mxCell>
        <mxCell id="s1ZY2kmT0cGc5pneQ3yJ-15" value="browseCategory()" style="text;strokeColor=none;fillColor=none;align=left;verticalAlign=middle;spacingLeft=4;spacingRight=4;overflow=hidden;points=[[0,0.5],[1,0.5]];portConstraint=eastwest;rotatable=0;whiteSpace=wrap;html=1;" parent="s1ZY2kmT0cGc5pneQ3yJ-9" vertex="1">
          <mxGeometry y="120" width="140" height="30" as="geometry" />
        </mxCell>
        <mxCell id="s1ZY2kmT0cGc5pneQ3yJ-16" value="securityProfile" style="swimlane;fontStyle=0;childLayout=stackLayout;horizontal=1;startSize=30;horizontalStack=0;resizeParent=1;resizeParentMax=0;resizeLast=0;collapsible=1;marginBottom=0;whiteSpace=wrap;html=1;" parent="1" vertex="1">
          <mxGeometry x="330" y="340" width="140" height="120" as="geometry" />
        </mxCell>
        <mxCell id="s1ZY2kmT0cGc5pneQ3yJ-17" value="userNo" style="text;strokeColor=none;fillColor=none;align=left;verticalAlign=middle;spacingLeft=4;spacingRight=4;overflow=hidden;points=[[0,0.5],[1,0.5]];portConstraint=eastwest;rotatable=0;whiteSpace=wrap;html=1;" parent="s1ZY2kmT0cGc5pneQ3yJ-16" vertex="1">
          <mxGeometry y="30" width="140" height="30" as="geometry" />
        </mxCell>
        <mxCell id="s1ZY2kmT0cGc5pneQ3yJ-18" value="password" style="text;strokeColor=none;fillColor=none;align=left;verticalAlign=middle;spacingLeft=4;spacingRight=4;overflow=hidden;points=[[0,0.5],[1,0.5]];portConstraint=eastwest;rotatable=0;whiteSpace=wrap;html=1;" parent="s1ZY2kmT0cGc5pneQ3yJ-16" vertex="1">
          <mxGeometry y="60" width="140" height="30" as="geometry" />
        </mxCell>
        <mxCell id="s1ZY2kmT0cGc5pneQ3yJ-19" value="vaildatePassword()" style="text;strokeColor=none;fillColor=none;align=left;verticalAlign=middle;spacingLeft=4;spacingRight=4;overflow=hidden;points=[[0,0.5],[1,0.5]];portConstraint=eastwest;rotatable=0;whiteSpace=wrap;html=1;" parent="s1ZY2kmT0cGc5pneQ3yJ-16" vertex="1">
          <mxGeometry y="90" width="140" height="30" as="geometry" />
        </mxCell>
        <mxCell id="s1ZY2kmT0cGc5pneQ3yJ-30" value="" style="endArrow=none;html=1;rounded=0;entryX=-0.029;entryY=0.033;entryDx=0;entryDy=0;entryPerimeter=0;exitX=0.957;exitY=0;exitDx=0;exitDy=0;exitPerimeter=0;" parent="s1ZY2kmT0cGc5pneQ3yJ-16" source="s1ZY2kmT0cGc5pneQ3yJ-19" target="s1ZY2kmT0cGc5pneQ3yJ-19" edge="1">
          <mxGeometry width="50" height="50" relative="1" as="geometry">
            <mxPoint x="-110" y="165" as="sourcePoint" />
            <mxPoint x="-60" y="115" as="targetPoint" />
            <Array as="points">
              <mxPoint x="140" y="91" />
            </Array>
          </mxGeometry>
        </mxCell>
        <mxCell id="s1ZY2kmT0cGc5pneQ3yJ-20" value="CarDetails" style="swimlane;fontStyle=0;childLayout=stackLayout;horizontal=1;startSize=30;horizontalStack=0;resizeParent=1;resizeParentMax=0;resizeLast=0;collapsible=1;marginBottom=0;whiteSpace=wrap;html=1;" parent="1" vertex="1">
          <mxGeometry x="70" y="735" width="140" height="90" as="geometry" />
        </mxCell>
        <mxCell id="s1ZY2kmT0cGc5pneQ3yJ-21" value="setNo()" style="text;strokeColor=none;fillColor=none;align=left;verticalAlign=middle;spacingLeft=4;spacingRight=4;overflow=hidden;points=[[0,0.5],[1,0.5]];portConstraint=eastwest;rotatable=0;whiteSpace=wrap;html=1;" parent="s1ZY2kmT0cGc5pneQ3yJ-20" vertex="1">
          <mxGeometry y="30" width="140" height="30" as="geometry" />
        </mxCell>
        <mxCell id="s1ZY2kmT0cGc5pneQ3yJ-22" value="seyTime()" style="text;strokeColor=none;fillColor=none;align=left;verticalAlign=middle;spacingLeft=4;spacingRight=4;overflow=hidden;points=[[0,0.5],[1,0.5]];portConstraint=eastwest;rotatable=0;whiteSpace=wrap;html=1;" parent="s1ZY2kmT0cGc5pneQ3yJ-20" vertex="1">
          <mxGeometry y="60" width="140" height="30" as="geometry" />
        </mxCell>
        <mxCell id="s1ZY2kmT0cGc5pneQ3yJ-24" value="Car" style="swimlane;fontStyle=0;childLayout=stackLayout;horizontal=1;startSize=30;horizontalStack=0;resizeParent=1;resizeParentMax=0;resizeLast=0;collapsible=1;marginBottom=0;whiteSpace=wrap;html=1;" parent="1" vertex="1">
          <mxGeometry x="300" y="720" width="140" height="120" as="geometry" />
        </mxCell>
        <mxCell id="s1ZY2kmT0cGc5pneQ3yJ-25" value="getSummary()" style="text;strokeColor=none;fillColor=none;align=left;verticalAlign=middle;spacingLeft=4;spacingRight=4;overflow=hidden;points=[[0,0.5],[1,0.5]];portConstraint=eastwest;rotatable=0;whiteSpace=wrap;html=1;" parent="s1ZY2kmT0cGc5pneQ3yJ-24" vertex="1">
          <mxGeometry y="30" width="140" height="30" as="geometry" />
        </mxCell>
        <mxCell id="s1ZY2kmT0cGc5pneQ3yJ-26" value="getFullDetails()" style="text;strokeColor=none;fillColor=none;align=left;verticalAlign=middle;spacingLeft=4;spacingRight=4;overflow=hidden;points=[[0,0.5],[1,0.5]];portConstraint=eastwest;rotatable=0;whiteSpace=wrap;html=1;" parent="s1ZY2kmT0cGc5pneQ3yJ-24" vertex="1">
          <mxGeometry y="60" width="140" height="30" as="geometry" />
        </mxCell>
        <mxCell id="s1ZY2kmT0cGc5pneQ3yJ-27" value="display()" style="text;strokeColor=none;fillColor=none;align=left;verticalAlign=middle;spacingLeft=4;spacingRight=4;overflow=hidden;points=[[0,0.5],[1,0.5]];portConstraint=eastwest;rotatable=0;whiteSpace=wrap;html=1;" parent="s1ZY2kmT0cGc5pneQ3yJ-24" vertex="1">
          <mxGeometry y="90" width="140" height="30" as="geometry" />
        </mxCell>
        <mxCell id="s1ZY2kmT0cGc5pneQ3yJ-28" value="" style="rhombus;whiteSpace=wrap;html=1;" parent="1" vertex="1">
          <mxGeometry x="240" y="385" width="20" height="20" as="geometry" />
        </mxCell>
        <mxCell id="s1ZY2kmT0cGc5pneQ3yJ-29" value="" style="endArrow=classic;html=1;rounded=0;entryX=0;entryY=0.933;entryDx=0;entryDy=0;entryPerimeter=0;" parent="1" target="s1ZY2kmT0cGc5pneQ3yJ-17" edge="1">
          <mxGeometry width="50" height="50" relative="1" as="geometry">
            <mxPoint x="260" y="394.5" as="sourcePoint" />
            <mxPoint x="310" y="394.5" as="targetPoint" />
          </mxGeometry>
        </mxCell>
        <mxCell id="s1ZY2kmT0cGc5pneQ3yJ-33" value="" style="endArrow=classic;html=1;rounded=0;exitX=1.014;exitY=0.2;exitDx=0;exitDy=0;exitPerimeter=0;" parent="1" source="s1ZY2kmT0cGc5pneQ3yJ-14" edge="1">
          <mxGeometry width="50" height="50" relative="1" as="geometry">
            <mxPoint x="250" y="600" as="sourcePoint" />
            <mxPoint x="310" y="590" as="targetPoint" />
          </mxGeometry>
        </mxCell>
        <mxCell id="s1ZY2kmT0cGc5pneQ3yJ-35" value="" style="endArrow=classic;html=1;rounded=0;" parent="1" edge="1">
          <mxGeometry width="50" height="50" relative="1" as="geometry">
            <mxPoint x="380" y="660" as="sourcePoint" />
            <mxPoint x="380" y="710" as="targetPoint" />
          </mxGeometry>
        </mxCell>
        <mxCell id="s1ZY2kmT0cGc5pneQ3yJ-36" value="" style="rhombus;whiteSpace=wrap;html=1;" parent="1" vertex="1">
          <mxGeometry x="280" y="790" width="20" height="20" as="geometry" />
        </mxCell>
        <mxCell id="s1ZY2kmT0cGc5pneQ3yJ-37" value="" style="endArrow=classic;html=1;rounded=0;exitX=0;exitY=0.5;exitDx=0;exitDy=0;entryX=1.029;entryY=0.1;entryDx=0;entryDy=0;entryPerimeter=0;" parent="1" source="s1ZY2kmT0cGc5pneQ3yJ-36" target="s1ZY2kmT0cGc5pneQ3yJ-22" edge="1">
          <mxGeometry width="50" height="50" relative="1" as="geometry">
            <mxPoint x="270" y="800" as="sourcePoint" />
            <mxPoint x="220" y="810" as="targetPoint" />
          </mxGeometry>
        </mxCell>
        <mxCell id="s1ZY2kmT0cGc5pneQ3yJ-44" value="1" style="text;strokeColor=none;fillColor=none;html=1;fontSize=24;fontStyle=1;verticalAlign=middle;align=center;" parent="1" vertex="1">
          <mxGeometry x="275" y="555" width="50" height="30" as="geometry" />
        </mxCell>
        <mxCell id="s1ZY2kmT0cGc5pneQ3yJ-45" value="1" style="text;strokeColor=none;fillColor=none;html=1;fontSize=24;fontStyle=1;verticalAlign=middle;align=center;" parent="1" vertex="1">
          <mxGeometry x="225" y="560" width="50" height="30" as="geometry" />
        </mxCell>
        <mxCell id="s1ZY2kmT0cGc5pneQ3yJ-46" value="1" style="text;strokeColor=none;fillColor=none;html=1;fontSize=24;fontStyle=1;verticalAlign=middle;align=center;" parent="1" vertex="1">
          <mxGeometry x="240" y="355" width="50" height="30" as="geometry" />
        </mxCell>
        <mxCell id="s1ZY2kmT0cGc5pneQ3yJ-47" value="1" style="text;strokeColor=none;fillColor=none;html=1;fontSize=24;fontStyle=1;verticalAlign=middle;align=center;" parent="1" vertex="1">
          <mxGeometry x="200" y="770" width="50" height="30" as="geometry" />
        </mxCell>
        <mxCell id="s1ZY2kmT0cGc5pneQ3yJ-48" value="1" style="text;strokeColor=none;fillColor=none;html=1;fontSize=24;fontStyle=1;verticalAlign=middle;align=center;" parent="1" vertex="1">
          <mxGeometry x="250" y="770" width="50" height="30" as="geometry" />
        </mxCell>
        <mxCell id="s1ZY2kmT0cGc5pneQ3yJ-49" value="1" style="text;strokeColor=none;fillColor=none;html=1;fontSize=24;fontStyle=1;verticalAlign=middle;align=center;" parent="1" vertex="1">
          <mxGeometry x="290" y="355" width="50" height="30" as="geometry" />
        </mxCell>
      </root>
    </mxGraphModel>
  </diagram>
</mxfile>
